U+2194_Matriz.ufo
<glyph name="numbersign" format="1">
  <advance width="833"/>
  <unicode hex="0023"/>
  <outline>
    <contour>
      <point x="499" y="799" type="move"/>
      <point x="299" y="-1" type="line"/>
    </contour>
    <contour>
      <point x="499" y="199" type="move"/>
      <point x="-1" y="199" type="line"/>
    </contour>
    <contour>
      <point x="599" y="599" type="move"/>
      <point x="93" y="599" type="line"/>
    </contour>
    <contour>
      <point x="299" y="799" type="move"/>
      <point x="99" y="-1" type="line"/>
    </contour>
  </outline>
</glyph>
<glyph name="plus" format="1">
  <advance width="833"/>
  <unicode hex="002B"/>
  <outline>
    <contour>
      <point x="406" y="322" type="move"/>
      <point x="6" y="322" type="line"/>
    </contour>
    <contour>
      <point x="206" y="122" type="move"/>
      <point x="206" y="522" type="line"/>
    </contour>
  </outline>
</glyph>
<glyph name="comma" format="1">
  <advance width="833"/>
  <unicode hex="002C"/>
  <outline>
    <contour>
      <point x="354" y="142" type="move"/>
      <point x="354" y="-58" type="line"/>
      <point x="254" y="-58" type="line"/>
    </contour>
  </outline>
</glyph>
<glyph name="hyphen" format="1">
  <advance width="833"/>
  <unicode hex="002D"/>
  <outline>
    <contour>
      <point x="225" y="296" type="move"/>
      <point x="425" y="296" type="line"/>
    </contour>
  </outline>
</glyph>
<glyph name="zero" format="1">
  <advance width="833"/>
  <unicode hex="0030"/>
  <outline>
    <contour>
      <point x="199" y="2" type="line"/>
      <point x="401" y="2" type="line" smooth="yes"/>
      <point x="604" y="2"/>
      <point x="599" y="131"/>
      <point x="599" y="202" type="curve" smooth="yes"/>
      <point x="599" y="602" type="line"/>
      <point x="599" y="602"/>
      <point x="599" y="802"/>
      <point x="397" y="802" type="curve" smooth="yes"/>
      <point x="197" y="802" type="line" smooth="yes"/>
      <point x="-6" y="802"/>
      <point x="-1" y="672"/>
      <point x="-1" y="602" type="curve" smooth="yes"/>
      <point x="-1" y="202" type="line"/>
      <point x="-1" y="131"/>
      <point x="-1" y="2"/>
      <point x="201" y="2" type="curve"/>
    </contour>
    <contour>
      <point x="553" y="734" type="move"/>
      <point x="39" y="56" type="line"/>
    </contour>
  </outline>
</glyph>
<glyph name="one" format="1">
  <advance width="833"/>
  <unicode hex="0031"/>
  <outline>
    <contour>
      <point x="600" y="1" type="move"/>
      <point x="0" y="1" type="line"/>
    </contour>
    <contour>
      <point x="100" y="1" type="move"/>
      <point x="171" y="1"/>
      <point x="300" y="-1"/>
      <point x="300" y="201" type="curve" smooth="yes"/>
      <point x="300" y="801" type="line" smooth="yes"/>
      <point x="300" y="599"/>
      <point x="171" y="601"/>
      <point x="100" y="601" type="curve" smooth="yes"/>
      <point x="0" y="601" type="line"/>
    </contour>
  </outline>
</glyph>
<glyph name="three" format="1">
  <advance width="833"/>
  <unicode hex="0033"/>
  <outline>
    <contour>
      <point x="1" y="601" type="move"/>
      <point x="1" y="672"/>
      <point x="-1" y="801"/>
      <point x="201" y="801" type="curve"/>
      <point x="401" y="801" type="line"/>
      <point x="472" y="801"/>
      <point x="601" y="803"/>
      <point x="601" y="601" type="curve"/>
      <point x="601" y="530"/>
      <point x="603" y="401"/>
      <point x="401" y="401" type="curve" smooth="yes"/>
      <point x="201" y="401" type="line"/>
      <point x="401" y="401" type="line" smooth="yes"/>
      <point x="603" y="401"/>
      <point x="601" y="272"/>
      <point x="601" y="201" type="curve"/>
      <point x="601" y="-1"/>
      <point x="472" y="1"/>
      <point x="401" y="1" type="curve"/>
      <point x="201" y="1" type="line"/>
      <point x="-1" y="1"/>
      <point x="1" y="130"/>
      <point x="1" y="201" type="curve" smooth="yes"/>
    </contour>
  </outline>
</glyph>
<glyph name="five" format="1">
  <advance width="833"/>
  <unicode hex="0035"/>
  <outline>
    <contour>
      <point x="1" y="201" type="move"/>
      <point x="1" y="130"/>
      <point x="-1" y="1"/>
      <point x="201" y="1" type="curve"/>
      <point x="401" y="1" type="line"/>
      <point x="472" y="1"/>
      <point x="601" y="-1"/>
      <point x="601" y="201" type="curve"/>
      <point x="601" y="272"/>
      <point x="603" y="401"/>
      <point x="401" y="401" type="curve" smooth="yes"/>
      <point x="1" y="401" type="line"/>
      <point x="1" y="601" type="line" smooth="yes"/>
      <point x="1" y="672"/>
      <point x="-1" y="801"/>
      <point x="201" y="801" type="curve" smooth="yes"/>
      <point x="601" y="801" type="line"/>
    </contour>
  </outline>
</glyph>
<glyph name="eight" format="1">
  <advance width="833"/>
  <unicode hex="0038"/>
  <outline>
    <contour>
      <point x="400" y="400" type="line"/>
      <point x="471" y="400"/>
      <point x="600" y="398"/>
      <point x="600" y="600" type="curve"/>
      <point x="600" y="671"/>
      <point x="602" y="800"/>
      <point x="400" y="800" type="curve"/>
      <point x="200" y="800" type="line"/>
      <point x="129" y="800"/>
      <point x="0" y="802"/>
      <point x="0" y="600" type="curve"/>
      <point x="0" y="529"/>
      <point x="-2" y="400"/>
      <point x="200" y="400" type="curve"/>
      <point x="400" y="400" type="line"/>
      <point x="602" y="400"/>
      <point x="600" y="271"/>
      <point x="600" y="200" type="curve"/>
      <point x="600" y="-2"/>
      <point x="471" y="0"/>
      <point x="400" y="0" type="curve"/>
      <point x="200" y="0" type="line"/>
      <point x="-2" y="0"/>
      <point x="0" y="129"/>
      <point x="0" y="200" type="curve"/>
      <point x="0" y="402"/>
      <point x="129" y="400"/>
      <point x="200" y="400" type="curve"/>
    </contour>
  </outline>
</glyph>
<glyph name="at" format="1">
  <advance width="833"/>
  <unicode hex="0040"/>
  <outline>
    <contour>
      <point x="399" y="558" type="move"/>
      <point x="399" y="158" type="line"/>
    </contour>
    <contour>
      <point x="399" y="-42" type="move"/>
      <point x="201" y="-42" type="line" smooth="yes"/>
      <point x="-1" y="-42"/>
      <point x="-1" y="87"/>
      <point x="-1" y="158" type="curve"/>
      <point x="-1" y="562" type="line" smooth="yes"/>
      <point x="-2" y="631"/>
      <point x="-6" y="758"/>
      <point x="197" y="758" type="curve" smooth="yes"/>
      <point x="397" y="758" type="line" smooth="yes"/>
      <point x="599" y="758"/>
      <point x="599" y="629"/>
      <point x="599" y="558" type="curve" smooth="yes"/>
      <point x="599" y="359" type="line"/>
      <point x="599" y="157"/>
      <point x="470" y="158"/>
      <point x="399" y="158" type="curve"/>
      <point x="197" y="158"/>
      <point x="199" y="358"/>
      <point x="199" y="358" type="curve"/>
      <point x="199" y="560"/>
      <point x="328" y="558"/>
      <point x="399" y="558" type="curve"/>
    </contour>
  </outline>
</glyph>
<glyph name="F" format="1">
  <advance width="833"/>
  <unicode hex="0046"/>
  <outline>
    <contour>
      <point x="599" y="602" type="move"/>
      <point x="599" y="805"/>
      <point x="467" y="800"/>
      <point x="397" y="800" type="curve"/>
      <point x="198" y="800" type="line"/>
      <point x="-5" y="800"/>
      <point x="0" y="668"/>
      <point x="0" y="598" type="curve"/>
      <point x="0" y="428"/>
      <point x="90" y="406"/>
      <point x="161" y="403" type="curve" smooth="yes"/>
      <point x="175" y="402"/>
      <point x="388" y="400"/>
      <point x="400" y="400" type="curve"/>
      <point x="388" y="400"/>
      <point x="175" y="398"/>
      <point x="161" y="397" type="curve" smooth="yes"/>
      <point x="90" y="393"/>
      <point x="1" y="367"/>
      <point x="1" y="198" type="curve"/>
      <point x="0" y="0" type="line"/>
    </contour>
  </outline>
</glyph>
<glyph name="H" format="1">
  <advance width="833"/>
  <unicode hex="0048"/>
  <outline>
    <contour>
      <point x="597" y="-4" type="move"/>
      <point x="597" y="796" type="line"/>
      <point x="592" y="596" type="line" smooth="yes"/>
      <point x="590" y="525"/>
      <point x="599" y="396"/>
      <point x="397" y="396" type="curve"/>
      <point x="197" y="396" type="line"/>
      <point x="-5" y="396"/>
      <point x="6" y="266"/>
      <point x="4" y="196" type="curve" smooth="yes"/>
      <point x="-3" y="-4" type="line"/>
      <point x="-3" y="796" type="line"/>
    </contour>
  </outline>
</glyph>
<glyph name="Q" format="1">
  <advance width="833"/>
  <unicode hex="0051"/>
  <outline>
    <contour>
      <point x="401" y="-1" type="line"/>
      <point x="401" y="201"/>
      <point x="530" y="199"/>
      <point x="601" y="199" type="curve" smooth="yes"/>
      <point x="601" y="599" type="line" smooth="yes"/>
      <point x="601" y="670"/>
      <point x="601" y="799"/>
      <point x="399" y="799" type="curve" smooth="yes"/>
      <point x="198" y="799" type="line" smooth="yes"/>
      <point x="-5" y="799"/>
      <point x="0" y="669"/>
      <point x="0" y="599" type="curve" smooth="yes"/>
      <point x="0" y="199" type="line" smooth="yes"/>
      <point x="0" y="-3"/>
      <point x="129" y="-1"/>
      <point x="200" y="-1" type="curve"/>
    </contour>
  </outline>
</glyph>
<glyph name="Z" format="1">
  <advance width="833"/>
  <unicode hex="005A"/>
  <outline>
    <contour>
      <point x="2" y="800" type="move"/>
      <point x="402" y="800" type="line" smooth="yes"/>
      <point x="604" y="800"/>
      <point x="602" y="671"/>
      <point x="602" y="600" type="curve" smooth="yes"/>
      <point x="2" y="200" type="line"/>
      <point x="2" y="129"/>
      <point x="0" y="0"/>
      <point x="202" y="0" type="curve" smooth="yes"/>
      <point x="602" y="0" type="line"/>
    </contour>
  </outline>
</glyph>
<glyph name="bracketleft" format="1">
  <advance width="833"/>
  <unicode hex="005B"/>
  <outline>
    <contour>
      <point x="300" y="800" type="move"/>
      <point x="0" y="800" type="line"/>
      <point x="0" y="0" type="line"/>
      <point x="300" y="0" type="line"/>
    </contour>
  </outline>
</glyph>
<glyph name="backslash" format="1">
  <advance width="833"/>
  <unicode hex="005C"/>
  <outline>
    <contour>
      <point x="0" y="799" type="move"/>
      <point x="600" y="-1" type="line"/>
    </contour>
  </outline>
</glyph>
<glyph name="underscore" format="1">
  <advance width="833"/>
  <unicode hex="005F"/>
  <outline>
    <contour>
      <point x="5" y="-185" type="move"/>
      <point x="581" y="-185" type="line"/>
    </contour>
    <contour>
      <point x="5" y="-185" type="move"/>
      <point x="581" y="-185" type="line"/>
    </contour>
  </outline>
</glyph>
<glyph name="grave" format="1">
  <advance width="833"/>
  <unicode hex="0060"/>
  <outline>
    <contour>
      <point x="300" y="928" type="move"/>
      <point x="0" y="1128" type="line"/>
    </contour>
  </outline>
</glyph>
<glyph name="b" format="1">
  <advance width="833"/>
  <unicode hex="0062"/>
  <outline>
    <contour>
      <point x="400" y="404" type="move"/>
      <point x="471" y="404"/>
      <point x="600" y="404"/>
      <point x="600" y="606" type="curve"/>
      <point x="600" y="677"/>
      <point x="600" y="804"/>
      <point x="398" y="804" type="curve" smooth="yes"/>
      <point x="198" y="804" type="line" smooth="yes"/>
      <point x="-5" y="804"/>
      <point x="0" y="678"/>
      <point x="0" y="608" type="curve" smooth="yes"/>
      <point x="0" y="202" type="line" smooth="yes"/>
      <point x="0" y="-1"/>
      <point x="126" y="4"/>
      <point x="196" y="4" type="curve"/>
      <point x="396" y="4" type="line"/>
      <point x="467" y="4"/>
      <point x="600" y="2"/>
      <point x="600" y="204" type="curve"/>
      <point x="600" y="275"/>
      <point x="602" y="404"/>
      <point x="400" y="404" type="curve" smooth="yes"/>
      <point x="0" y="404" type="line"/>
    </contour>
  </outline>
</glyph>
<glyph name="c" format="1">
  <advance width="833"/>
  <unicode hex="0063"/>
  <outline>
    <contour>
      <point x="600" y="598" type="move"/>
      <point x="600" y="669"/>
      <point x="600" y="798"/>
      <point x="398" y="798" type="curve" smooth="yes"/>
      <point x="198" y="798" type="line" smooth="yes"/>
      <point x="-5" y="798"/>
      <point x="0" y="672"/>
      <point x="0" y="602" type="curve" smooth="yes"/>
      <point x="0" y="196" type="line" smooth="yes"/>
      <point x="0" y="-7"/>
      <point x="130" y="-2"/>
      <point x="200" y="-2" type="curve"/>
      <point x="400" y="-2" type="line"/>
      <point x="471" y="-2"/>
      <point x="600" y="-4"/>
      <point x="600" y="198" type="curve" smooth="yes"/>
    </contour>
  </outline>
</glyph>
<glyph name="h" format="1">
  <advance width="833"/>
  <unicode hex="0068"/>
  <outline>
    <contour>
      <point x="597" y="-4" type="move"/>
      <point x="597" y="796" type="line"/>
      <point x="593" y="596" type="line" smooth="yes"/>
      <point x="592" y="525"/>
      <point x="599" y="396"/>
      <point x="397" y="396" type="curve"/>
      <point x="197" y="396" type="line"/>
      <point x="-5" y="396"/>
      <point x="4" y="266"/>
      <point x="2" y="196" type="curve" smooth="yes"/>
      <point x="-3" y="-4" type="line"/>
      <point x="-3" y="796" type="line"/>
    </contour>
  </outline>
</glyph>
<glyph name="i" format="1">
  <advance width="833"/>
  <unicode hex="0069"/>
  <outline>
    <contour>
      <point x="-4" y="-1" type="move"/>
      <point x="596" y="-1" type="line"/>
      <point x="496" y="7" type="line" smooth="yes"/>
      <point x="425" y="13"/>
      <point x="296" y="-5"/>
      <point x="296" y="198" type="curve" smooth="yes"/>
      <point x="296" y="600" type="line" smooth="yes"/>
      <point x="296" y="803"/>
      <point x="166" y="787"/>
      <point x="96" y="792" type="curve" smooth="yes"/>
      <point x="-4" y="799" type="line"/>
      <point x="596" y="799" type="line"/>
    </contour>
  </outline>
</glyph>
<glyph name="j" format="1">
  <advance width="833"/>
  <unicode hex="006A"/>
  <outline>
    <contour>
      <point x="596" y="799" type="move"/>
      <point x="-4" y="799" type="line"/>
      <point x="96" y="793" type="line" smooth="yes"/>
      <point x="166" y="789"/>
      <point x="296" y="803"/>
      <point x="296" y="600" type="curve" smooth="yes"/>
      <point x="296" y="198" type="line"/>
      <point x="296" y="127"/>
      <point x="298" y="-1"/>
      <point x="96" y="-1" type="curve" smooth="yes"/>
      <point x="-4" y="-1" type="line"/>
    </contour>
  </outline>
</glyph>
<glyph name="r" format="1">
  <advance width="833"/>
  <unicode hex="0072"/>
  <outline>
    <contour>
      <point x="601" y="-4" type="move"/>
      <point x="601" y="98" type="line" smooth="yes"/>
      <point x="601" y="301"/>
      <point x="472" y="296"/>
      <point x="401" y="296" type="curve" smooth="yes"/>
      <point x="200" y="296" type="line"/>
      <point x="0" y="296" type="line"/>
      <point x="200" y="296" type="line"/>
    </contour>
    <contour>
      <point x="401" y="296" type="move"/>
      <point x="604" y="296"/>
      <point x="601" y="425"/>
      <point x="601" y="496" type="curve"/>
      <point x="601" y="596" type="line"/>
      <point x="601" y="667"/>
      <point x="601" y="796"/>
      <point x="399" y="796" type="curve" smooth="yes"/>
      <point x="198" y="796" type="line" smooth="yes"/>
      <point x="-5" y="796"/>
      <point x="0" y="666"/>
      <point x="0" y="596" type="curve" smooth="yes"/>
      <point x="0" y="-4" type="line"/>
    </contour>
  </outline>
</glyph>
<glyph name="s" format="1">
  <advance width="833"/>
  <unicode hex="0073"/>
  <outline>
    <contour>
      <point x="601" y="604" type="move"/>
      <point x="601" y="675"/>
      <point x="601" y="804"/>
      <point x="399" y="804" type="curve" smooth="yes"/>
      <point x="198" y="804" type="line" smooth="yes"/>
      <point x="-5" y="804"/>
      <point x="0" y="674"/>
      <point x="0" y="604" type="curve"/>
      <point x="0" y="402"/>
      <point x="129" y="404"/>
      <point x="200" y="404" type="curve"/>
      <point x="401" y="404" type="line"/>
      <point x="472" y="404"/>
      <point x="601" y="409"/>
      <point x="601" y="206" type="curve"/>
      <point x="601" y="136"/>
      <point x="604" y="4"/>
      <point x="401" y="4" type="curve"/>
      <point x="200" y="4" type="line"/>
      <point x="129" y="4"/>
      <point x="0" y="2"/>
      <point x="0" y="204" type="curve" smooth="yes"/>
    </contour>
  </outline>
</glyph>
<glyph name="x" format="1">
  <advance width="833"/>
  <unicode hex="0078"/>
  <outline>
    <contour>
      <point x="600" y="0" type="move"/>
      <point x="600" y="200" type="line" smooth="yes"/>
      <point x="600" y="271"/>
      <point x="600" y="400"/>
      <point x="398" y="400" type="curve" smooth="yes"/>
      <point x="202" y="400" type="line" smooth="yes"/>
      <point x="0" y="400"/>
      <point x="0" y="529"/>
      <point x="0" y="600" type="curve" smooth="yes"/>
      <point x="0" y="800" type="line"/>
    </contour>
    <contour>
      <point x="600" y="800" type="move"/>
      <point x="600" y="600" type="line" smooth="yes"/>
      <point x="600" y="529"/>
      <point x="605" y="400"/>
      <point x="402" y="400" type="curve" smooth="yes"/>
      <point x="198" y="400" type="line" smooth="yes"/>
      <point x="-5" y="400"/>
      <point x="0" y="270"/>
      <point x="0" y="200" type="curve" smooth="yes"/>
      <point x="0" y="0" type="line"/>
    </contour>
  </outline>
</glyph>
<glyph name="z" format="1">
  <advance width="833"/>
  <unicode hex="007A"/>
  <outline>
    <contour>
      <point x="2" y="800" type="move"/>
      <point x="402" y="800" type="line" smooth="yes"/>
      <point x="604" y="800"/>
      <point x="602" y="671"/>
      <point x="602" y="600" type="curve" smooth="yes"/>
      <point x="2" y="200" type="line"/>
      <point x="2" y="129"/>
      <point x="0" y="0"/>
      <point x="202" y="0" type="curve" smooth="yes"/>
      <point x="602" y="0" type="line"/>
    </contour>
  </outline>
</glyph>
<glyph name="plusminus" format="1">
  <advance width="833"/>
  <unicode hex="00B1"/>
  <outline>
    <contour>
      <point x="-4" y="-3" type="move"/>
      <point x="396" y="-3" type="line"/>
    </contour>
    <contour>
      <point x="-4" y="397" type="move"/>
      <point x="396" y="397" type="line"/>
    </contour>
    <contour>
      <point x="196" y="597" type="move"/>
      <point x="196" y="197" type="line"/>
    </contour>
  </outline>
</glyph>
<glyph name="acute" format="1">
  <advance width="833"/>
  <unicode hex="00B4"/>
  <outline>
    <contour>
      <point x="300" y="928" type="move"/>
      <point x="600" y="1128" type="line"/>
    </contour>
  </outline>
</glyph>
<glyph name="guillemotright" format="1">
  <advance width="833"/>
  <unicode hex="00BB"/>
  <outline>
    <contour>
      <point x="199" y="401" type="move"/>
      <point x="399" y="201" type="line"/>
      <point x="199" y="1" type="line"/>
    </contour>
    <contour>
      <point x="-1" y="401" type="move"/>
      <point x="199" y="201" type="line"/>
      <point x="-1" y="1" type="line"/>
    </contour>
  </outline>
</glyph>
<glyph name="Atilde" format="1">
  <advance width="833"/>
  <unicode hex="00C3"/>
  <outline>
    <contour>
      <point x="600" y="346" type="move"/>
      <point x="200" y="346" type="line" smooth="yes"/>
      <point x="-2" y="346"/>
      <point x="10" y="219"/>
      <point x="7" y="150" type="curve" smooth="yes"/>
      <point x="0" y="-4" type="line"/>
      <point x="0" y="600" type="line" smooth="yes"/>
      <point x="-1" y="669"/>
      <point x="-5" y="796"/>
      <point x="198" y="796" type="curve" smooth="yes"/>
      <point x="401" y="796" type="line" smooth="yes"/>
      <point x="603" y="796"/>
      <point x="601" y="666"/>
      <point x="600" y="596" type="curve"/>
      <point x="600" y="446"/>
      <point x="600" y="-4"/>
      <point x="600" y="-4" type="curve" smooth="yes"/>
    </contour>
    <contour>
      <point x="0" y="928" type="move"/>
      <point x="0" y="999"/>
      <point x="-2" y="1128"/>
      <point x="200" y="1128" type="curve" smooth="yes"/>
      <point x="300" y="1128" type="line"/>
      <point x="300" y="928" type="line"/>
      <point x="400" y="928" type="line" smooth="yes"/>
      <point x="602" y="928"/>
      <point x="600" y="1056"/>
      <point x="600" y="1128" type="curve" smooth="yes"/>
    </contour>
  </outline>
</glyph>
<glyph name="Oslash" format="1">
  <advance width="833"/>
  <unicode hex="00D8"/>
  <outline>
    <contour>
      <point x="599" y="801" type="move"/>
      <point x="-1" y="1" type="line"/>
    </contour>
    <contour>
      <point x="394" y="101" type="line" smooth="yes"/>
      <point x="596" y="101"/>
      <point x="592" y="230"/>
      <point x="592" y="301" type="curve" smooth="yes"/>
      <point x="592" y="501" type="line" smooth="yes"/>
      <point x="592" y="572"/>
      <point x="592" y="701"/>
      <point x="389" y="701" type="curve" smooth="yes"/>
      <point x="197" y="701" type="line" smooth="yes"/>
      <point x="-6" y="701"/>
      <point x="-1" y="571"/>
      <point x="-1" y="501" type="curve" smooth="yes"/>
      <point x="-1" y="301" type="line" smooth="yes"/>
      <point x="-1" y="230"/>
      <point x="-1" y="101"/>
      <point x="201" y="101" type="curve" smooth="yes"/>
    </contour>
  </outline>
</glyph>
<glyph name="aacute" format="1">
  <advance width="833"/>
  <unicode hex="00E1"/>
  <outline>
    <contour>
      <point x="600" y="346" type="move"/>
      <point x="200" y="346" type="line" smooth="yes"/>
      <point x="-2" y="346"/>
      <point x="10" y="219"/>
      <point x="7" y="150" type="curve" smooth="yes"/>
      <point x="0" y="-4" type="line"/>
      <point x="0" y="600" type="line" smooth="yes"/>
      <point x="-1" y="669"/>
      <point x="-5" y="796"/>
      <point x="198" y="796" type="curve" smooth="yes"/>
      <point x="401" y="796" type="line" smooth="yes"/>
      <point x="603" y="796"/>
      <point x="601" y="666"/>
      <point x="600" y="596" type="curve"/>
      <point x="600" y="446"/>
      <point x="600" y="-4"/>
      <point x="600" y="-4" type="curve" smooth="yes"/>
    </contour>
    <contour>
      <point x="300" y="928" type="move"/>
      <point x="600" y="1128" type="line"/>
    </contour>
  </outline>
</glyph>
<glyph name="igrave" format="1">
  <advance width="833"/>
  <unicode hex="00EC"/>
  <outline>
    <contour>
      <point x="300" y="928" type="move"/>
      <point x="0" y="1128" type="line"/>
    </contour>
    <contour>
      <point x="-4" y="-1" type="move"/>
      <point x="596" y="-1" type="line"/>
      <point x="496" y="7" type="line" smooth="yes"/>
      <point x="425" y="13"/>
      <point x="296" y="-5"/>
      <point x="296" y="198" type="curve" smooth="yes"/>
      <point x="296" y="600" type="line" smooth="yes"/>
      <point x="296" y="803"/>
      <point x="166" y="787"/>
      <point x="96" y="792" type="curve" smooth="yes"/>
      <point x="-4" y="799" type="line"/>
      <point x="596" y="799" type="line"/>
    </contour>
  </outline>
</glyph>
<glyph name="divide" format="1">
  <advance width="833"/>
  <unicode hex="00F7"/>
  <outline>
    <contour>
      <point x="331" y="1" type="move"/>
      <point x="331" y="1"/>
      <point x="331" y="5"/>
      <point x="331" y="5" type="curve"/>
    </contour>
    <contour>
      <point x="329" y="583" type="move"/>
      <point x="329" y="592" type="line"/>
    </contour>
  </outline>
</glyph>
<glyph name="tilde" format="1">
  <advance width="833"/>
  <unicode hex="02DC"/>
  <outline>
    <contour>
      <point x="0" y="928" type="move"/>
      <point x="0" y="999"/>
      <point x="-2" y="1128"/>
      <point x="200" y="1128" type="curve" smooth="yes"/>
      <point x="300" y="1128" type="line"/>
      <point x="300" y="928" type="line"/>
      <point x="400" y="928" type="line" smooth="yes"/>
      <point x="602" y="928"/>
      <point x="600" y="1056"/>
      <point x="600" y="1128" type="curve" smooth="yes"/>
    </contour>
  </outline>
</glyph>
<glyph name="endash" format="1">
  <advance width="833"/>
  <unicode hex="2013"/>
  <outline>
    <contour>
      <point x="93" y="272" type="move"/>
      <point x="493" y="272" type="line"/>
    </contour>
  </outline>
</glyph>
<glyph name="quoteleft" format="1">
  <advance width="833"/>
  <unicode hex="2018"/>
  <outline>
    <contour>
      <point x="0" y="604" type="move"/>
      <point x="0" y="804" type="line"/>
      <point x="100" y="804" type="line"/>
    </contour>
  </outline>
</glyph>
<glyph name="quoteright" format="1">
  <advance width="833"/>
  <unicode hex="2019"/>
  <outline>
    <contour>
      <point x="104" y="799" type="move"/>
      <point x="104" y="599" type="line"/>
      <point x="4" y="599" type="line"/>
    </contour>
  </outline>
</glyph>
<glyph name="quotesinglbase" format="1">
  <advance width="833"/>
  <unicode hex="201A"/>
  <outline>
    <contour>
      <point x="363" y="135" type="move"/>
      <point x="363" y="-65" type="line"/>
      <point x="263" y="-65" type="line"/>
    </contour>
  </outline>
</glyph>
<glyph name="quotedblleft" format="1">
  <advance width="833"/>
  <unicode hex="201C"/>
  <outline>
    <contour>
      <point x="0" y="604" type="move"/>
      <point x="0" y="804" type="line"/>
      <point x="100" y="804" type="line"/>
    </contour>
    <contour>
      <point x="106" y="604" type="move"/>
      <point x="106" y="804" type="line"/>
      <point x="206" y="804" type="line"/>
    </contour>
  </outline>
</glyph>
<glyph name="bullet" format="1">
  <advance width="833"/>
  <unicode hex="2022"/>
  <outline>
    <contour>
      <point x="210" y="403" type="move"/>
      <point x="10" y="203" type="line"/>
    </contour>
    <contour>
      <point x="10" y="403" type="move"/>
      <point x="210" y="203" type="line"/>
    </contour>
  </outline>
</glyph>
